<svg xmlns="http://www.w3.org/2000/svg" viewBox="0 0 288.51 306.03"><defs><style>.cls-1{fill:#fff;opacity:0.7;}.cls-2{opacity:0.1;}.cls-3{opacity:0.09;}</style></defs><title>Asset 2</title><g id="Layer_2" data-name="Layer 2"><g id="Layer_1-2" data-name="Layer 1"><path d="M159.32,284.07l48,22,.68-13.79,9-1.53V278.46c11.63.11,23.39-7,35.24-18.39,4.92.69,9.71,3,14.29,7.66l4.6-7.66q9.74,6.31,17.36,3.07l-2.89-76.69c-3.19-4.76-8.66-5.07-14.8-4.08a106.32,106.32,0,0,0-18.56-31.06l-4.6,6.13a128.29,128.29,0,0,0-42.89-24l-1-11.24c-37.64-8.16-73.08-11.39-103.14-2.55L89.36,114l5.11-40.85c-6-4.09-13.93-5.43-20.26-5.11L72.61,80.8a142.6,142.6,0,0,0-42.38,37.79l-.61,13.82-11.24-1L0,206.46l34.21,17.36-2,21.45C73.6,273.29,114.38,299.39,159.32,284.07Z"/><rect class="cls-1" x="114.64" y="123.99" width="28.6" height="26.81" rx="3.19"/><path class="cls-1" d="M39.06,156.67l13.79-14.55,4.85-36.26c-14.43,15.38-30.26,30.85-25.79,44.94h-2.8v9.6h3.32l.76,2.4h5.62Z"/><path class="cls-1" d="M258.81,160.4V113.45c-8.79-16.68-16.93-27-24.68-33.7V45c-8.68-23.75-21.19-17.37-43.66,11.49l-10.21-1L182,8.26c-13.27-20.43-77.87-1.53-96.25,40.85l-1,18.08,8.68,5.15L88.34,113.2c3.64.38,7.37,2.06,11.23,5.61,28.49-8.86,64.35-5.58,103.15,2.56l1,11.23c14.2,4.41,28.5,12.23,42.9,24l4.59-6.13Z"/><polyline class="cls-2" points="202.21 120.42 220.6 105.86 211.4 92.58 182.81 115.56"/><path class="cls-3" d="M159.32,112.76l-24-14.56L137.87,77a49.11,49.11,0,0,0-32.17,9.7v30.13C120.51,112,137.75,109.93,159.32,112.76Z"/></g></g></svg>